<svg fill="#000000" xmlns="http://www.w3.org/2000/svg" viewBox="0 0 24 24" height="15px">
  <path
    d="M 7 2 C 5.355469 2 4 3.355469 4 5 C 4 6.292969 4.84375 7.394531 6 7.8125 L 6 16.1875 C 4.84375 16.605469 4 17.707031 4 19 C 4 20.644531 5.355469 22 7 22 C 8.644531 22 10 20.644531 10 19 C 10 17.757813 9.214844 16.703125 8.125 16.25 C 8.265625 15.855469 8.539063 15.613281 9.03125 15.34375 C 9.773438 14.9375 10.984375 14.65625 12.25 14.34375 C 13.515625 14.03125 14.855469 13.6875 16 12.90625 C 16.960938 12.25 17.722656 11.195313 17.9375 9.8125 C 19.121094 9.410156 20 8.3125 20 7 C 20 5.355469 18.644531 4 17 4 C 15.355469 4 14 5.355469 14 7 C 14 8.269531 14.816406 9.34375 15.9375 9.78125 C 15.796875 10.484375 15.429688 10.871094 14.875 11.25 C 14.144531 11.75 12.984375 12.101563 11.75 12.40625 C 10.515625 12.710938 9.226563 12.972656 8.09375 13.59375 C 8.058594 13.613281 8.03125 13.636719 8 13.65625 L 8 7.8125 C 9.15625 7.394531 10 6.292969 10 5 C 10 3.355469 8.644531 2 7 2 Z M 7 4 C 7.5625 4 8 4.4375 8 5 C 8 5.5625 7.5625 6 7 6 C 6.4375 6 6 5.5625 6 5 C 6 4.4375 6.4375 4 7 4 Z M 17 6 C 17.5625 6 18 6.4375 18 7 C 18 7.5625 17.5625 8 17 8 C 16.4375 8 16 7.5625 16 7 C 16 6.4375 16.4375 6 17 6 Z M 7 18 C 7.5625 18 8 18.4375 8 19 C 8 19.5625 7.5625 20 7 20 C 6.4375 20 6 19.5625 6 19 C 6 18.4375 6.4375 18 7 18 Z" />
</svg>